<svg width="197" height="40" viewBox="0 0 197 40" fill="none" xmlns="http://www.w3.org/2000/svg">
<g filter="url(#filter0_d_1156_831)">
<mask id="mask0_1156_831" style="mask-type:luminance" maskUnits="userSpaceOnUse" x="4" y="0" width="189" height="32">
<path d="M192.696 0H4.09277V32H192.696V0Z" fill="white"/>
</mask>
<g mask="url(#mask0_1156_831)">
<mask id="mask1_1156_831" style="mask-type:luminance" maskUnits="userSpaceOnUse" x="4" y="0" width="189" height="32">
<path d="M192.696 0H4.09277V32H192.696V0Z" fill="white"/>
</mask>
<g mask="url(#mask1_1156_831)">
<path d="M78.0498 3.50239C78.0498 1.9221 79.3317 0.632812 80.9194 0.632812C82.4997 0.632812 83.789 1.91473 83.789 3.50239C83.7337 5.08268 82.4002 6.31671 80.8162 6.26145C79.3133 6.2062 78.1087 5.00164 78.0498 3.50239Z" fill="#191825" fill-opacity="0.5"/>
</g>
<mask id="mask2_1156_831" style="mask-type:luminance" maskUnits="userSpaceOnUse" x="4" y="0" width="189" height="32">
<path d="M192.696 0H4.09277V32H192.696V0Z" fill="white"/>
</mask>
<g mask="url(#mask2_1156_831)">
<path d="M123.274 22.6191C123.274 21.0278 124.556 19.7422 126.133 19.7422C127.72 19.7422 129.006 21.0278 129.006 22.6191C129.006 24.2068 127.72 25.4924 126.133 25.4924C124.556 25.4924 123.274 24.2031 123.274 22.6191Z" fill="#191825" fill-opacity="0.5"/>
</g>
<mask id="mask3_1156_831" style="mask-type:luminance" maskUnits="userSpaceOnUse" x="4" y="0" width="189" height="32">
<path d="M192.696 0H4.09277V32H192.696V0Z" fill="white"/>
</mask>
<g mask="url(#mask3_1156_831)">
<path d="M31.0206 21.3775C28.5562 21.3775 26.836 19.4178 26.836 16.6145C26.836 13.815 28.5526 11.8553 31.0206 11.8553C33.4997 11.8553 35.2384 13.815 35.2384 16.6145C35.2347 19.462 33.5402 21.3775 31.0206 21.3775ZM31.0206 7.67061C25.8009 7.67061 22.0104 11.4316 22.0104 16.6145C22.0104 21.7975 25.8046 25.5585 31.0206 25.5585C36.2662 25.5585 40.0677 21.7975 40.0677 16.6182C40.0677 11.4316 36.2588 7.67061 31.0206 7.67061ZM72.5024 17.064C72.3219 16.714 72.0898 16.3862 71.8209 16.0988L71.6625 15.9331L71.8283 15.7747C72.0677 15.5205 72.3145 15.2221 72.5466 14.8759L77.1548 8.02424H71.5594L68.0967 13.384C67.9015 13.675 67.5073 13.8113 66.9143 13.8113H66.1223V3.67751C66.1223 1.65149 64.8625 1.37891 63.4958 1.37891H61.1604L61.1641 25.2933H66.1186V18.1249H66.5827C67.1463 18.1249 67.5294 18.1912 67.7099 18.4969L70.4432 23.6577C71.2094 25.0575 71.9682 25.2969 73.3975 25.2969H77.2064L74.3737 20.6224L72.5024 17.064ZM96.5714 7.63377C94.0481 7.63377 92.4384 8.7536 91.5396 9.70399L91.2412 10.0097L91.1344 9.59716C90.8691 8.58047 89.9777 8.02792 88.6331 8.02792H86.4119L86.4266 25.2969H91.3517V17.3402C91.3517 16.5593 91.4512 15.8889 91.6574 15.27C92.2063 13.4061 93.735 12.242 95.6432 12.242C97.1793 12.242 97.7834 13.0524 97.7834 15.1521V22.6742C97.7834 24.4607 98.6085 25.3006 100.402 25.3006H102.742L102.731 14.3159C102.731 9.93606 100.598 7.63377 96.5714 7.63377ZM80.9822 8.02424H78.6467L78.6615 21.3775V25.2933H81.1516L81.24 25.2969L82.4041 25.2933H83.5571V25.2896H83.5681L83.5792 10.6507C83.5718 8.88253 82.7282 8.02424 80.9822 8.02424ZM50.3562 21.3775C47.8918 21.3775 46.1715 19.4178 46.1715 16.6145C46.1715 13.815 47.8918 11.8553 50.3562 11.8553C52.8316 11.8553 54.574 13.815 54.574 16.6145C54.5703 19.462 52.8758 21.3775 50.3562 21.3775ZM50.3562 7.67061C45.1327 7.67061 41.3386 11.4316 41.3386 16.6145C41.3386 21.7975 45.1327 25.5585 50.3562 25.5585C55.5907 25.5585 59.4033 21.7975 59.4033 16.6182C59.4033 11.4316 55.5944 7.67061 50.3562 7.67061Z" fill="#191825" fill-opacity="0.5"/>
</g>
</g>
<mask id="mask4_1156_831" style="mask-type:luminance" maskUnits="userSpaceOnUse" x="4" y="0" width="189" height="32">
<path d="M192.696 0H4.09277V32H192.696V0Z" fill="white"/>
</mask>
<g mask="url(#mask4_1156_831)">
<mask id="mask5_1156_831" style="mask-type:luminance" maskUnits="userSpaceOnUse" x="4" y="0" width="189" height="32">
<path d="M192.656 0.628906H4.09277V31.9585H192.656V0.628906Z" fill="white"/>
</mask>
<g mask="url(#mask5_1156_831)">
<mask id="mask6_1156_831" style="mask-type:luminance" maskUnits="userSpaceOnUse" x="4" y="0" width="189" height="32">
<path d="M192.696 0H4.09277V32H192.696V0Z" fill="white"/>
</mask>
<g mask="url(#mask6_1156_831)">
<path d="M155.885 21.3749C153.421 21.3749 151.701 19.4152 151.701 16.6119C151.701 13.8123 153.421 11.8526 155.885 11.8526C158.365 11.8526 160.103 13.8123 160.103 16.6119C160.103 19.4594 158.405 21.3749 155.885 21.3749ZM155.885 7.66797C150.662 7.66797 146.868 11.429 146.868 16.6119C146.868 21.7948 150.655 25.5558 155.885 25.5558C161.124 25.5558 164.932 21.7948 164.932 16.6156C164.932 11.429 161.12 7.66797 155.885 7.66797Z" fill="#191825" fill-opacity="0.5"/>
</g>
<mask id="mask7_1156_831" style="mask-type:luminance" maskUnits="userSpaceOnUse" x="4" y="0" width="189" height="32">
<path d="M192.696 0H4.09277V32H192.696V0Z" fill="white"/>
</mask>
<g mask="url(#mask7_1156_831)">
<path d="M113.107 20.6118C110.414 20.6118 109.46 18.2653 109.46 16.0662C109.46 15.0937 109.707 11.9368 112.857 11.9368C114.418 11.9368 116.5 12.3862 116.5 16.2246C116.496 19.853 114.651 20.6118 113.107 20.6118ZM119.053 7.98054C118.117 7.98054 117.399 8.35259 117.038 9.03406L116.905 9.29929L116.677 9.09669C115.881 8.40784 114.455 7.59375 112.146 7.59375C107.541 7.59375 104.443 11.049 104.443 16.1988C104.443 21.3412 107.652 24.9328 112.241 24.9328C113.807 24.9328 115.048 24.5644 116.028 23.8203L116.404 23.5367V24.0155C116.404 26.3252 114.912 27.5961 112.208 27.5961C110.89 27.5961 109.696 27.2756 108.897 26.9846C107.854 26.6678 107.239 26.933 106.819 27.9755L106.425 28.9406L105.872 30.3514L106.215 30.5319C107.946 31.4529 110.201 31.998 112.234 31.998C116.426 31.998 121.322 29.8541 121.322 23.8129L121.336 7.96949H119.053" fill="#191825" fill-opacity="0.5"/>
</g>
</g>
</g>
<mask id="mask8_1156_831" style="mask-type:luminance" maskUnits="userSpaceOnUse" x="4" y="0" width="189" height="32">
<path d="M192.696 0H4.09277V32H192.696V0Z" fill="white"/>
</mask>
<g mask="url(#mask8_1156_831)">
<mask id="mask9_1156_831" style="mask-type:luminance" maskUnits="userSpaceOnUse" x="4" y="0" width="189" height="32">
<path d="M192.696 0H4.09277V32H192.696V0Z" fill="white"/>
</mask>
<g mask="url(#mask9_1156_831)">
<path d="M12.6868 21.1754L8.67525 21.1717V16.3829C8.67525 15.3552 9.07309 14.8284 9.94612 14.7032H12.6794C14.6281 14.7032 15.8879 15.9335 15.8952 17.9227C15.8952 19.9671 14.6649 21.1754 12.6868 21.1754ZM8.67525 8.25307V6.99325C8.67525 5.88815 9.1394 5.36508 10.1671 5.29877H12.2189C13.976 5.29877 15.0296 6.3523 15.0296 8.11309C15.0296 9.45763 14.3076 11.0232 12.2816 11.0232H8.67525V8.25307ZM17.7997 13.0345L17.0777 12.6256L17.7076 12.0841C18.448 11.4542 19.6747 10.0286 19.6747 7.57159C19.6747 3.81057 16.7609 1.38672 12.2484 1.38672H6.51663C5.17945 1.43461 4.10751 2.52865 4.09277 3.86582V25.2016H12.3552C17.3724 25.2016 20.6066 22.472 20.6066 18.2432C20.6066 15.974 19.5568 14.0254 17.7997 13.0345Z" fill="#191825" fill-opacity="0.5"/>
</g>
<mask id="mask10_1156_831" style="mask-type:luminance" maskUnits="userSpaceOnUse" x="4" y="0" width="189" height="32">
<path d="M192.696 0H4.09277V32H192.696V0Z" fill="white"/>
</mask>
<g mask="url(#mask10_1156_831)">
<path d="M186.924 7.68728C184.869 7.69096 182.92 8.63766 181.638 10.2511L181.281 10.7005L181.001 10.1959C180.087 8.53084 178.522 7.69096 176.334 7.69096C174.046 7.69096 172.51 8.96551 171.795 9.72803L171.331 10.2327L171.151 9.56595C170.893 8.60819 170.038 8.08143 168.749 8.08143H166.679L166.657 25.2842H171.357V17.6884C171.357 17.0217 171.438 16.366 171.604 15.6771C172.053 13.8427 173.287 11.8682 175.361 12.0635C176.636 12.1887 177.262 13.1759 177.262 15.0804V25.2805H181.995V17.6847C181.995 16.8522 182.073 16.226 182.261 15.6072C182.636 13.8537 183.929 12.0561 185.93 12.0561C187.377 12.0561 187.915 12.8739 187.915 15.0804V22.7645C187.915 24.4995 188.689 25.2805 190.427 25.2805H192.638L192.641 14.2995C192.656 9.90853 190.722 7.68728 186.924 7.68728ZM144.146 19.3092C144.131 19.324 142.109 21.4605 139.445 21.4605C137.018 21.4605 134.568 19.9723 134.568 16.6496C134.568 13.7801 136.469 11.7725 139.191 11.7725C140.075 11.7725 141.077 12.0893 141.236 12.6197L141.258 12.7081C141.464 13.4633 142.153 13.9827 142.93 13.979L145.505 13.9827V11.7283C145.505 8.75554 141.729 7.68359 139.184 7.68359C133.747 7.68359 129.805 11.4667 129.805 16.6791C129.805 21.8878 133.706 25.6709 139.084 25.6709C143.752 25.6709 146.286 22.6024 146.312 22.5767L146.444 22.4109L144.404 19.0256L144.146 19.3092Z" fill="#191825" fill-opacity="0.5"/>
</g>
</g>
</g>
<defs>
<filter id="filter0_d_1156_831" x="0.0927734" y="0.632812" width="196.549" height="39.3242" filterUnits="userSpaceOnUse" color-interpolation-filters="sRGB">
<feFlood flood-opacity="0" result="BackgroundImageFix"/>
<feColorMatrix in="SourceAlpha" type="matrix" values="0 0 0 0 0 0 0 0 0 0 0 0 0 0 0 0 0 0 127 0" result="hardAlpha"/>
<feOffset dy="4"/>
<feGaussianBlur stdDeviation="2"/>
<feComposite in2="hardAlpha" operator="out"/>
<feColorMatrix type="matrix" values="0 0 0 0 0 0 0 0 0 0 0 0 0 0 0 0 0 0 0.25 0"/>
<feBlend mode="normal" in2="BackgroundImageFix" result="effect1_dropShadow_1156_831"/>
<feBlend mode="normal" in="SourceGraphic" in2="effect1_dropShadow_1156_831" result="shape"/>
</filter>
</defs>
</svg>
