<svg width="111" height="40" viewBox="0 0 111 40" fill="none" xmlns="http://www.w3.org/2000/svg">
<g filter="url(#filter0_d_1156_890)">
<path d="M58.3373 8.04048C58.3373 9.19374 57.408 10.1224 56.2548 10.1224C55.1015 10.1224 54.1729 9.19374 54.1729 8.04048C54.1729 6.88723 55.0698 5.9586 56.2548 5.9586C57.4407 5.9906 58.3373 6.91955 58.3373 8.04048ZM49.7525 12.2369V12.7495C49.7525 12.7495 48.7599 11.4676 46.6457 11.4676C43.1546 11.4676 40.4314 14.1264 40.4314 17.8099C40.4314 21.4617 43.1226 24.1522 46.6457 24.1522C48.7919 24.1522 49.7525 22.8389 49.7525 22.8389V23.3832C49.7525 23.6395 49.9451 23.8312 50.2011 23.8312H52.7953V11.787H50.2011C49.9451 11.7879 49.7525 12.0126 49.7525 12.2369ZM49.7525 19.9561C49.2725 20.661 48.3112 21.2697 47.1583 21.2697C45.1084 21.2697 43.5385 19.9884 43.5385 17.8099C43.5385 15.6317 45.1084 14.3504 47.1583 14.3504C48.2796 14.3504 49.3045 14.9911 49.7525 15.6637V19.9561ZM54.7175 11.7879H57.7923V23.8322H54.7175V11.7879ZM100.651 11.4673C98.5368 11.4673 97.5435 12.7492 97.5435 12.7492V5.9906H94.4687V23.8322H97.0635C97.3199 23.8322 97.5115 23.6078 97.5115 23.3835V22.8392C97.5115 22.8392 98.5048 24.1525 100.618 24.1525C104.11 24.1525 106.833 21.4626 106.833 17.8108C106.833 14.1591 104.11 11.4673 100.651 11.4673ZM100.138 21.2373C98.9528 21.2373 98.0242 20.6293 97.5435 19.9241V15.6317C98.0242 14.9911 99.0491 14.3184 100.138 14.3184C102.188 14.3184 103.758 15.5997 103.758 17.7779C103.758 19.9561 102.189 21.2373 100.138 21.2373ZM92.8675 16.6893V23.8642H89.792V17.0413C89.792 15.0557 89.1514 14.2544 87.4228 14.2544C86.4942 14.2544 85.5329 14.7351 84.9233 15.44V23.8325H81.8491V11.7882H84.2827C84.539 11.7882 84.7313 12.0126 84.7313 12.2369V12.7495C85.6283 11.8202 86.8132 11.4676 87.9981 11.4676C89.3437 11.4676 90.465 11.8526 91.3619 12.6212C92.4505 13.5181 92.8675 14.6711 92.8675 16.6893ZM74.3846 11.4673C72.2711 11.4673 71.2778 12.7492 71.2778 12.7492V5.9906H68.203V23.8322H70.7972C71.0535 23.8322 71.2458 23.6078 71.2458 23.3835V22.8392C71.2458 22.8392 72.2391 24.1525 74.3526 24.1525C77.8444 24.1525 80.5669 21.4626 80.5669 17.8108C80.5989 14.1588 77.8764 11.4673 74.3846 11.4673ZM73.872 21.2373C72.6871 21.2373 71.7585 20.6293 71.2778 19.9241V15.6317C71.7585 14.9911 72.7834 14.3184 73.872 14.3184C75.9225 14.3184 77.4918 15.5997 77.4918 17.7779C77.4918 19.9561 75.9225 21.2373 73.872 21.2373ZM65.5442 11.4673C66.4728 11.4673 66.9534 11.6279 66.9534 11.6279V14.4784C66.9534 14.4784 64.3909 13.6135 62.7897 15.4397V23.8638H59.7142V11.7879H62.3091C62.5654 11.7879 62.757 12.0122 62.757 12.2366V12.7492C63.3343 12.0762 64.5836 11.4673 65.5442 11.4673ZM33.6091 22.7429C33.4491 22.3586 33.2888 21.9423 33.1288 21.5897C32.8722 21.0133 32.6159 20.4684 32.3922 19.9561L32.3602 19.9241C30.1497 15.1191 27.7798 10.2507 25.281 5.4463L25.185 5.25365C24.9222 4.75525 24.6661 4.25336 24.4167 3.74809C24.0961 3.17114 23.7761 2.56315 23.2634 1.9862C22.2385 0.704946 20.7649 0 19.1957 0C17.5938 0 16.1525 0.70495 15.0959 1.92189C14.6153 2.49819 14.2627 3.10683 13.9427 3.68377C13.6927 4.18872 13.4366 4.69061 13.1744 5.18934L13.078 5.38197C10.6115 10.1864 8.20934 15.0551 5.99914 19.8598L5.96683 19.9234C5.74283 20.4367 5.4862 20.981 5.22988 21.557C5.06988 21.9096 4.90989 22.294 4.74989 22.7103C4.33326 23.8952 4.20494 25.0165 4.36557 26.17C4.71789 28.5726 6.31913 30.5898 8.52965 31.4874C9.36259 31.84 10.2275 32 11.1242 32C11.3805 32 11.7005 31.968 11.9571 31.9357C13.0144 31.8077 14.1033 31.4557 15.1606 30.8471C16.4738 30.1101 17.7231 29.0535 19.1323 27.5159C20.5416 29.0535 21.8228 30.1101 23.1041 30.8471C24.1617 31.4557 25.2503 31.8077 26.3072 31.9357C26.5635 31.9683 26.8842 32 27.1405 32C28.0374 32 28.934 31.84 29.7347 31.4874C31.9772 30.5898 33.5464 28.5406 33.8991 26.17C34.1535 25.0491 34.0255 23.9285 33.6091 22.7429ZM19.1634 24.4085C17.4335 22.2303 16.3122 20.1804 15.9282 18.4512C15.7682 17.7142 15.7359 17.0736 15.8322 16.497C15.8959 15.9843 16.0885 15.5357 16.3449 15.1514C16.9535 14.2871 17.9784 13.7421 19.1637 13.7421C20.3493 13.7421 21.4062 14.2548 21.9828 15.1514C22.2391 15.5357 22.4311 15.9846 22.4958 16.497C22.5915 17.0739 22.5595 17.7462 22.3995 18.4512C22.0139 20.1484 20.8926 22.1986 19.1634 24.4085ZM31.9433 25.914C31.7193 27.5796 30.598 29.0215 29.0288 29.6621C28.2601 29.9821 27.4269 30.0784 26.5946 29.9821C25.7939 29.8858 24.9927 29.6295 24.1604 29.1495C23.0071 28.5082 21.8542 27.5159 20.5086 26.042C22.6225 23.4478 23.9037 21.077 24.3844 18.9635C24.6087 17.9702 24.641 17.0736 24.5444 16.2403C24.4167 15.4397 24.1281 14.7027 23.6797 14.0621C22.6862 12.6202 21.0203 11.7879 19.163 11.7879C17.3058 11.7879 15.6399 12.6529 14.647 14.0621C14.1987 14.7027 13.91 15.4397 13.782 16.2403C13.654 17.0736 13.6857 18.0022 13.942 18.9635C14.4223 21.077 15.7356 23.4795 17.8175 26.074C16.5042 27.5476 15.319 28.5409 14.1657 29.1815C13.3328 29.6621 12.5325 29.9184 11.7318 30.0141C10.8672 30.1104 10.0339 29.9821 9.29732 29.6941C7.72807 29.0535 6.60681 27.6116 6.38282 25.946C6.28682 25.1454 6.3505 24.3448 6.67113 23.4478C6.76681 23.1272 6.92744 22.8072 7.08744 22.4229C7.31176 21.9103 7.56743 21.3653 7.82407 20.821L7.85639 20.7573C10.0663 15.9843 12.4365 11.1156 14.903 6.37523L14.999 6.1826C15.2556 5.70261 15.5119 5.18998 15.7679 4.70935C16.0242 4.19672 16.3122 3.71609 16.6648 3.29945C17.3375 2.53147 18.2341 2.11452 19.2274 2.11452C20.2206 2.11452 21.1172 2.53147 21.7899 3.29945C22.1425 3.71705 22.4305 4.19768 22.6868 4.70935C22.9434 5.18998 23.1998 5.70261 23.4554 6.1826L23.5517 6.37523C25.9806 11.1353 28.3194 15.9409 30.5666 20.7893V20.8213C30.8233 21.3346 31.0473 21.9106 31.3036 22.4239C31.4636 22.8075 31.6239 23.1275 31.7199 23.4482C31.9756 24.2802 32.0716 25.0814 31.9433 25.914Z" fill="#191825" fill-opacity="0.5"/>
</g>
<defs>
<filter id="filter0_d_1156_890" x="0.298584" y="0" width="110.534" height="40" filterUnits="userSpaceOnUse" color-interpolation-filters="sRGB">
<feFlood flood-opacity="0" result="BackgroundImageFix"/>
<feColorMatrix in="SourceAlpha" type="matrix" values="0 0 0 0 0 0 0 0 0 0 0 0 0 0 0 0 0 0 127 0" result="hardAlpha"/>
<feOffset dy="4"/>
<feGaussianBlur stdDeviation="2"/>
<feComposite in2="hardAlpha" operator="out"/>
<feColorMatrix type="matrix" values="0 0 0 0 0 0 0 0 0 0 0 0 0 0 0 0 0 0 0.25 0"/>
<feBlend mode="normal" in2="BackgroundImageFix" result="effect1_dropShadow_1156_890"/>
<feBlend mode="normal" in="SourceGraphic" in2="effect1_dropShadow_1156_890" result="shape"/>
</filter>
</defs>
</svg>
