<svg width="182" height="40" viewBox="0 0 182 40" fill="none" xmlns="http://www.w3.org/2000/svg">
<g filter="url(#filter0_d_1156_892)">
<path d="M104.241 31.14L117.545 1.03163C117.756 0.57475 117.509 0.181833 116.997 0.181833H107.677C107.404 0.197332 107.14 0.285015 106.912 0.435924C106.684 0.586832 106.5 0.795556 106.379 1.04077L93.2394 31.14C93.0476 31.606 93.2943 31.9898 93.7968 31.9898H102.944C103.455 31.9898 104.04 31.606 104.241 31.14ZM151.949 23.035L172.6 0.190971H148.449L142.985 8.99048H152.46L131.471 31.999H157.029L166.55 23.035H151.949ZM63.5696 0.181833H47.5788C47.1048 0.209305 46.6464 0.361515 46.2501 0.623061C45.8537 0.884606 45.5335 1.2462 45.3219 1.67126L32.7394 30.5095C32.3739 31.3319 32.8216 31.999 33.7171 31.999H41.6394C42.5349 31.999 43.5583 31.3319 43.9055 30.5187L47.4966 22.3405H51.2156C52.3761 22.2674 52.8695 22.6969 52.2299 24.0401L49.4703 30.5095C49.1231 31.3319 49.5617 31.999 50.4572 31.999H58.3795C58.8554 31.974 59.3161 31.8229 59.7143 31.5612C60.1125 31.2994 60.4339 30.9365 60.6456 30.5095L64.2458 22.1852C65.3789 19.4804 63.7433 17.3879 61.3675 17.2783C63.4691 16.5199 65.4063 14.4274 66.2744 12.5267L68.1385 8.14069C70.3863 3.0419 68.7872 0.11787 63.5696 0.190971M58.9095 9.28289L56.9357 13.6232C56.4789 14.6649 55.821 14.7472 55.1631 14.7198H50.713L53.6919 7.95793H57.9592C59.0008 8.0219 59.2658 8.39654 58.9095 9.28289ZM94.6923 0.172696H77.7512C77.4119 0.190378 77.0834 0.297824 76.7992 0.484053C76.5151 0.670282 76.2855 0.928617 76.1339 1.23266L63.1676 30.9299C62.9209 31.5147 63.2224 31.9807 63.8621 31.9807H82.0002C87.7477 31.8985 91.0464 30.6283 93.6689 24.5427L95.533 20.4856C96.995 17.0133 95.5604 15.5056 92.8191 15.067C95.1035 14.3634 96.8214 12.2161 97.5615 10.3246L99.0784 7.10814C100.942 2.81346 99.3891 0.11787 94.6832 0.172696M86.3771 20.0927L85.2258 22.4045C84.6501 24.0127 83.645 24.4513 82.2286 24.4696H76.9288L79.4691 18.4845H84.7689C86.2674 18.5941 86.8523 18.9596 86.3771 20.0927ZM89.4199 9.43822L88.625 11.2657L88.5062 11.5033C88.3742 11.8845 88.1198 12.2114 87.7826 12.4329C87.4454 12.6543 87.0444 12.758 86.6421 12.7278H82.0459L84.1475 7.88483H88.8351C89.6758 7.93966 89.8128 8.48791 89.4199 9.43822ZM120.479 0.181833L116.54 8.99048H122.16C122.544 8.99048 122.726 9.26461 122.571 9.62098L112.748 31.3685C112.584 31.7157 112.776 31.999 113.159 31.999H123.165C123.549 31.999 123.987 31.7157 124.143 31.3593L133.573 9.62098C133.663 9.43813 133.8 9.28256 133.971 9.17017C134.141 9.05779 134.338 8.99262 134.541 8.98135H140.307L145.735 0.181833H120.479ZM37.4635 11.019L38.7062 8.30516C41.2099 2.58502 39.556 0.127008 34.64 0.190971H22.8068C17.9365 0.127008 13.8794 2.86829 11.6315 7.96707L7.97647 18.2926H4.52246L11.1289 27.2109L22.0484 18.2926H19.2706L22.4779 10.8454C22.9987 9.62098 23.8942 9.03617 24.8536 8.99048H26.7177C27.1563 9.00876 27.4578 9.14582 27.6315 9.33771L33.4247 4.46737L37.4635 11.019Z" fill="#191825" fill-opacity="0.5"/>
<path d="M10.8823 29.8327L6.02112 23.674L5.76526 24.2222C3.50827 29.3576 3.88292 31.9161 8.75326 31.9892H20.4311C25.2649 31.9161 29.4956 29.3576 31.7617 24.2222L35.234 16.2634H38.3408L33.041 7.33594L22.2129 16.2634H25.1827L22.9896 21.3347C22.4597 22.413 21.6556 22.9978 20.7966 23.0343H19.2432L10.8823 29.8327Z" fill="#191825" fill-opacity="0.5"/>
<path d="M176.446 0.000121574C176.876 0.000121574 177.241 0.155461 177.543 0.457002C177.845 0.758543 178 1.12405 178 1.55351C178 1.97384 177.845 2.33935 177.543 2.65003C177.241 2.96071 176.876 3.10691 176.446 3.10691C176.242 3.11005 176.039 3.07111 175.851 2.99251C175.662 2.91391 175.492 2.79733 175.35 2.65003C175.048 2.33935 174.893 1.97384 174.893 1.55351C174.893 1.13318 175.048 0.749405 175.35 0.457002C175.492 0.310133 175.662 0.193842 175.851 0.115274C176.04 0.0367063 176.242 -0.00248031 176.446 0.000121574ZM176.446 2.8145C176.614 2.81829 176.781 2.78783 176.936 2.72499C177.092 2.66214 177.233 2.56823 177.351 2.449C177.471 2.33132 177.565 2.19028 177.628 2.03467C177.691 1.87905 177.721 1.71216 177.717 1.54438C177.72 1.37812 177.689 1.21297 177.626 1.05902C177.563 0.905057 177.47 0.765513 177.351 0.648891C177.233 0.52922 177.092 0.435021 176.937 0.372144C176.781 0.309268 176.614 0.279057 176.446 0.283387C176.28 0.279772 176.115 0.310346 175.961 0.373218C175.807 0.436089 175.667 0.529918 175.551 0.648891C175.304 0.895607 175.185 1.19715 175.185 1.54438C175.185 1.89161 175.304 2.20228 175.551 2.449C175.798 2.69571 176.099 2.8145 176.446 2.8145ZM177.241 2.3759H176.876L176.419 1.71799H176.227V2.3759H175.898V0.703717H176.419C176.602 0.703717 176.748 0.749405 176.858 0.831644C176.967 0.92302 177.031 1.04181 177.031 1.19715C177.031 1.39818 176.922 1.55351 176.711 1.63575L177.241 2.3759ZM176.236 1.44386H176.41C176.62 1.44386 176.721 1.36162 176.721 1.20629C176.721 1.05095 176.629 0.977845 176.419 0.977845H176.236V1.44386Z" fill="#191825" fill-opacity="0.5"/>
</g>
<defs>
<filter id="filter0_d_1156_892" x="0.43457" y="0" width="181.565" height="40" filterUnits="userSpaceOnUse" color-interpolation-filters="sRGB">
<feFlood flood-opacity="0" result="BackgroundImageFix"/>
<feColorMatrix in="SourceAlpha" type="matrix" values="0 0 0 0 0 0 0 0 0 0 0 0 0 0 0 0 0 0 127 0" result="hardAlpha"/>
<feOffset dy="4"/>
<feGaussianBlur stdDeviation="2"/>
<feComposite in2="hardAlpha" operator="out"/>
<feColorMatrix type="matrix" values="0 0 0 0 0 0 0 0 0 0 0 0 0 0 0 0 0 0 0.25 0"/>
<feBlend mode="normal" in2="BackgroundImageFix" result="effect1_dropShadow_1156_892"/>
<feBlend mode="normal" in="SourceGraphic" in2="effect1_dropShadow_1156_892" result="shape"/>
</filter>
</defs>
</svg>
