<svg width="220" height="40" viewBox="0 0 220 40" fill="none" xmlns="http://www.w3.org/2000/svg">
<g filter="url(#filter0_d_1156_790)">
<path d="M26.801 19.2256C28.6227 24.1611 34.1133 26.6875 39.0502 24.87C43.9844 23.0399 46.5164 17.5549 44.6877 12.618C42.8645 7.67534 37.3825 5.15318 32.4384 6.9749C27.4986 8.80367 24.9765 14.2858 26.801 19.2256Z" fill="white"/>
<path d="M14.608 25.4216C19.8741 25.4216 24.1431 21.1527 24.1431 15.8866C24.1431 10.6205 19.8741 6.35156 14.608 6.35156C9.34198 6.35156 5.073 10.6205 5.073 15.8866C5.073 21.1527 9.34198 25.4216 14.608 25.4216Z" fill="white"/>
<path d="M16.2338 15.7841C16.2338 16.7557 15.4444 17.5521 14.4728 17.5521C13.497 17.5521 12.709 16.7571 12.709 15.7841C12.709 14.8139 13.497 14.0273 14.4728 14.0273C15.4444 14.0288 16.2338 14.8139 16.2338 15.7841Z" fill="#191825" fill-opacity="0.5"/>
<path d="M37.4825 15.7841C37.4825 16.7557 36.696 17.5521 35.7244 17.5521C34.7457 17.5521 33.9606 16.7571 33.9606 15.7841C33.9606 14.8139 34.7457 14.0273 35.7244 14.0273C36.6974 14.0288 37.4825 14.8139 37.4825 15.7841Z" fill="#191825" fill-opacity="0.5"/>
<path d="M9.23364 15.7868C9.23364 18.6775 11.5849 21.0246 14.4757 21.0246C17.3593 21.0246 19.7092 18.6775 19.7092 15.7868C19.7092 12.9031 17.3579 10.5547 14.4757 10.5547C11.5863 10.5575 9.23364 12.9046 9.23364 15.7868ZM11.0398 15.7868C11.0398 13.8959 12.5847 12.358 14.4785 12.358C16.3694 12.358 17.9058 13.9001 17.9058 15.7868C17.9058 17.6834 16.3694 19.2241 14.4785 19.2241C12.5847 19.2255 11.0398 17.6862 11.0398 15.7868Z" fill="#191825" fill-opacity="0.5"/>
<path d="M30.4851 15.7868C30.4851 18.6775 32.8336 21.0246 35.7229 21.0246C38.608 21.0246 40.955 18.6775 40.955 15.7868C40.955 12.9031 38.608 10.5547 35.7229 10.5547C32.835 10.5575 30.4851 12.9046 30.4851 15.7868ZM32.2913 15.7868C32.2913 13.8959 33.832 12.358 35.7271 12.358C37.618 12.358 39.1531 13.9001 39.1531 15.7868C39.1531 17.6834 37.618 19.2241 35.7271 19.2241C33.8291 19.2255 32.2913 17.6862 32.2913 15.7868Z" fill="#191825" fill-opacity="0.5"/>
<path d="M32.0715 5.97362C33.1758 5.56691 34.3056 5.3692 35.4212 5.33814C32.3822 3.97821 28.9421 3.28906 25.1306 3.28906C21.3488 3.28906 17.8579 3.99374 14.8203 5.29295C20.3179 5.40168 24.7875 9.70742 25.173 15.1344C25.2662 13.8889 25.5712 12.6575 26.1093 11.491C27.2941 8.91095 29.4138 6.95367 32.0715 5.97362Z" fill="white"/>
<path d="M44.2697 9.6225C44.7668 7.49434 46.3442 5.36477 46.3442 5.36477L39.265 5.36054C35.2953 2.79743 30.4741 1.4375 25.1333 1.4375C19.5891 1.4375 14.5829 2.82991 10.6358 5.41137L4 5.41702C4 5.41702 5.55905 7.52258 6.06319 9.63521C4.77246 11.3905 4.00565 13.5469 4.00565 15.8883C4.00565 21.7334 8.76328 26.4882 14.6111 26.4882C17.9538 26.4882 20.9349 24.9305 22.8794 22.5101L25.1375 25.8908L27.4125 22.4804C28.4364 23.7824 29.7568 24.8387 31.3045 25.5547C33.8789 26.7381 36.764 26.8553 39.4203 25.8739C44.9066 23.8446 47.7239 17.7284 45.6946 12.2492C45.3387 11.2846 44.853 10.4077 44.2697 9.6225ZM25.1319 3.28887C28.9433 3.28887 32.3834 3.97801 35.4224 5.33935C34.3054 5.36901 33.1771 5.56813 32.0727 5.97201C29.415 6.95206 27.2953 8.90935 26.1133 11.4852C25.5753 12.6516 25.2717 13.883 25.1771 15.1286C24.7887 9.7044 20.3192 5.39866 14.8215 5.2871C17.8577 3.99213 21.3472 3.28887 25.1319 3.28887ZM21.6184 20.6248C20.096 22.8702 17.5202 24.3501 14.6083 24.3501C9.93963 24.3501 6.14087 20.5485 6.14087 15.8898C6.14087 11.2183 9.94104 7.42373 14.6083 7.42373C19.2756 7.42373 23.0743 11.2183 23.0743 15.8898C23.0743 16.175 23.0192 16.4433 22.9896 16.7187C22.8484 18.1492 22.388 19.4894 21.6184 20.6248ZM38.6789 23.8672C36.5578 24.6467 34.2574 24.5605 32.2026 23.613C30.7453 22.9379 29.552 21.8802 28.692 20.5669C28.3417 20.0359 28.0339 19.4725 27.8065 18.8553C27.5481 18.1577 27.4196 17.4389 27.3504 16.7145C27.2092 15.2458 27.4224 13.7602 28.0551 12.3833C29.0041 10.3286 30.693 8.7653 32.8141 7.98013C37.1947 6.3646 42.071 8.61138 43.6893 12.9905C45.3063 17.3697 43.0581 22.246 38.6789 23.8672Z" fill="#191825" fill-opacity="0.5"/>
<path d="M58.8521 2.98674L55.7482 4.05859C55.7482 4.05859 55.7482 7.77545 55.7482 8.10872C55.4234 8.10872 52.3081 8.10872 52.3081 8.10872V10.8243C52.3081 10.8243 55.3273 10.8243 55.655 10.8243C55.655 11.1774 55.655 19.5431 55.655 19.5431C55.655 23.6865 57.0657 25.3867 60.5355 25.3867C61.4153 25.3867 62.2555 25.278 63.0986 25.0478L63.2356 25.0139L63.1974 22.198L62.9602 22.2884C62.2781 22.5243 61.7443 22.6401 61.3319 22.6401C59.7023 22.6401 59.0979 21.7235 59.0979 19.2494C59.0979 19.2494 59.0979 11.176 59.0979 10.8286C59.4283 10.8286 63.0675 10.8286 63.0675 10.8286V8.10872C63.0675 8.10872 59.4297 8.10872 59.0979 8.10872C59.0979 7.77262 59.0979 2.90625 59.0979 2.90625L58.8521 2.98674Z" fill="#191825" fill-opacity="0.5"/>
<path d="M69.5846 10.8586C69.5846 9.90253 69.5846 8.10765 69.5846 8.10765H66.4354V25.0863H69.8783V16.5638C69.8783 12.991 71.3795 11.0224 74.0993 11.0224C74.4933 11.0224 74.876 11.0817 75.342 11.213L75.5652 11.2766L75.6781 7.92548L74.1968 7.8125C72.2014 7.81109 70.5901 8.88858 69.5846 10.8586Z" fill="#191825" fill-opacity="0.5"/>
<path d="M81.8143 8.10622H78.555V25.0863H81.9978V8.10622H81.8143ZM78.2217 3.13111C78.2217 4.26085 79.1424 5.17736 80.2693 5.17736C81.3991 5.17736 82.317 4.26085 82.317 3.13111C82.317 2.00278 81.3991 1.08204 80.2693 1.08204C79.1424 1.07921 78.2217 2.00278 78.2217 3.13111Z" fill="#191825" fill-opacity="0.5"/>
<path d="M94.1568 7.70703C91.7943 7.70703 89.8073 8.82548 88.4827 10.8604C88.4827 10.047 88.4827 8.10244 88.4827 8.10244H85.335V31.9979H88.7807C88.7807 31.9979 88.7807 23.6534 88.7807 22.7355C90.0234 24.4258 91.8056 25.355 94.0241 25.355C98.3764 25.355 101.188 21.7836 101.188 16.2691C101.188 11.1485 98.3609 7.70703 94.1568 7.70703ZM93.1952 22.5702C90.4711 22.5702 88.7793 20.2415 88.7793 16.5007C88.7793 12.8897 90.5643 10.5568 93.3265 10.5568C95.9884 10.5568 97.58 12.7683 97.58 16.4654C97.5814 20.2288 95.8995 22.5702 93.1952 22.5702Z" fill="#191825" fill-opacity="0.5"/>
<path d="M111.251 7.71094C109.145 7.71094 107.301 8.10917 105.609 8.92259L105.505 8.97343L105.541 11.9122L105.813 11.7597C107.43 10.8559 108.96 10.3941 110.354 10.3941C112.848 10.3941 114.28 11.8232 114.28 14.3214C114.28 14.3214 114.28 14.3934 114.28 14.4668C113.976 14.4668 112.31 14.4668 112.31 14.4668C106.642 14.4668 103.523 16.5201 103.523 20.2426C103.523 23.2322 105.774 25.3222 108.997 25.3222C111.368 25.3222 113.203 24.3902 114.51 22.6363C114.51 23.3184 114.51 25.0878 114.51 25.0878H117.621V14.8128C117.62 10.1032 115.478 7.71094 111.251 7.71094ZM114.274 17.921C114.274 20.8456 112.515 22.7379 109.792 22.7379C108.124 22.7379 106.961 21.6421 106.961 20.0746C106.961 18.0142 108.931 16.883 112.506 16.883C112.506 16.883 113.979 16.883 114.277 16.883C114.274 17.1471 114.274 17.921 114.274 17.921Z" fill="#191825" fill-opacity="0.5"/>
<path d="M132.243 0C132.243 0 132.243 9.46584 132.243 10.412C130.973 8.64678 129.206 7.71192 126.937 7.71192C122.725 7.71192 119.895 11.1802 119.895 16.3347C119.895 21.6445 122.765 25.3529 126.868 25.3529C129.298 25.3529 131.193 24.2768 132.507 22.1853C132.507 23.0312 132.507 25.0888 132.507 25.0888H135.69V0H132.243ZM127.76 22.5031C125.137 22.5031 123.507 20.2154 123.507 16.5324C123.507 12.8452 125.151 10.4614 127.698 10.4614C130.542 10.4614 132.24 12.7294 132.24 16.5324C132.243 20.1659 130.489 22.5031 127.76 22.5031Z" fill="#191825" fill-opacity="0.5"/>
<path d="M151.075 8.10547L146.193 17.9102L141.679 8.10547H137.8L146.121 25.0855L154.667 8.10547H151.075Z" fill="#191825" fill-opacity="0.5"/>
<path d="M159.679 8.10622H156.419V25.0863H159.866V8.10622H159.679ZM156.089 3.13111C156.089 4.26085 157.009 5.17736 158.137 5.17736C159.271 5.17736 160.185 4.26085 160.185 3.13111C160.185 2.00278 159.268 1.08204 158.137 1.08204C157.01 1.07921 156.089 2.00278 156.089 3.13111Z" fill="#191825" fill-opacity="0.5"/>
<path d="M163.902 12.4613C163.902 14.8493 165.543 16.1075 168.574 17.5903C170.484 18.5294 171.483 19.083 171.483 20.4062C171.483 21.7633 170.257 22.6403 168.353 22.6403C167.008 22.6403 165.514 22.2618 164.034 21.5346L163.782 21.4103L163.671 24.4041L163.785 24.4465C165.2 25.0099 166.687 25.2853 168.224 25.2853C172.435 25.2853 175.153 23.2786 175.153 20.1732C175.153 17.5847 173.432 16.2699 170.448 14.8775C168.263 13.8509 167.347 13.2535 167.347 12.1647C167.347 11.1338 168.366 10.4616 169.942 10.4616C171.366 10.4616 172.755 10.778 174.07 11.405L174.318 11.5194L174.468 8.59051L174.331 8.55097C172.905 8.12731 171.497 7.91408 170.141 7.91408C166.41 7.90843 163.902 9.73861 163.902 12.4613Z" fill="#191825" fill-opacity="0.5"/>
<path d="M185.896 7.71094C180.722 7.71094 177.509 11.1185 177.509 16.5978C177.509 22.0799 180.725 25.4818 185.896 25.4818C191.095 25.4818 194.321 22.0785 194.321 16.5978C194.321 11.1199 191.092 7.71094 185.896 7.71094ZM185.926 22.673C183.066 22.673 181.146 20.2186 181.146 16.5653C181.146 12.8922 183.066 10.4294 185.926 10.4294C188.832 10.4294 190.709 12.84 190.709 16.5653C190.709 20.2765 188.835 22.673 185.926 22.673Z" fill="#191825" fill-opacity="0.5"/>
<path d="M200.673 10.8586C200.673 9.90253 200.673 8.10765 200.673 8.10765H197.524V25.0863H200.967V16.5638C200.967 12.991 202.459 11.0224 205.183 11.0224C205.575 11.0224 205.955 11.0817 206.412 11.213L206.645 11.2766L206.752 7.92548L205.277 7.8125C203.29 7.81109 201.681 8.88858 200.673 10.8586Z" fill="#191825" fill-opacity="0.5"/>
<path d="M214.965 7.35641C215.53 7.92834 215.827 8.68809 215.827 9.50575C215.827 10.3601 215.508 11.1255 214.92 11.689C214.307 12.2708 213.548 12.5829 212.754 12.5829C211.925 12.5829 211.162 12.2567 210.569 11.6438C210.003 11.0563 209.682 10.305 209.682 9.50292C209.682 8.68527 210.009 7.89304 210.619 7.29145C211.191 6.73081 211.926 6.42578 212.754 6.42578C213.603 6.42719 214.375 6.74917 214.965 7.35641ZM211 7.69392C210.503 8.19101 210.237 8.83072 210.237 9.50575C210.237 10.1638 210.483 10.7696 210.958 11.2526C211.433 11.7497 212.065 12.018 212.741 12.018C213.399 12.018 214.032 11.7652 214.52 11.2907C215.001 10.829 215.265 10.1963 215.265 9.50433C215.265 8.8279 215.019 8.2136 214.553 7.74334C214.064 7.24626 213.444 6.985 212.754 6.985C212.073 6.985 211.476 7.2279 211 7.69392ZM212.81 7.75182C213.773 7.75182 214.268 8.10063 214.268 8.73187C214.268 9.16682 214.009 9.50433 213.55 9.64273L214.307 11.1241H213.282L212.651 9.78677H212.384V11.1241H211.455V7.75041L212.81 7.75182ZM212.377 9.23743H212.7C213.114 9.23743 213.313 9.09198 213.313 8.80248C213.313 8.47203 213.104 8.33646 212.651 8.33646H212.377V9.23743Z" fill="#191825" fill-opacity="0.5"/>
</g>
<defs>
<filter id="filter0_d_1156_790" x="0" y="0" width="219.827" height="39.9961" filterUnits="userSpaceOnUse" color-interpolation-filters="sRGB">
<feFlood flood-opacity="0" result="BackgroundImageFix"/>
<feColorMatrix in="SourceAlpha" type="matrix" values="0 0 0 0 0 0 0 0 0 0 0 0 0 0 0 0 0 0 127 0" result="hardAlpha"/>
<feOffset dy="4"/>
<feGaussianBlur stdDeviation="2"/>
<feComposite in2="hardAlpha" operator="out"/>
<feColorMatrix type="matrix" values="0 0 0 0 0 0 0 0 0 0 0 0 0 0 0 0 0 0 0.25 0"/>
<feBlend mode="normal" in2="BackgroundImageFix" result="effect1_dropShadow_1156_790"/>
<feBlend mode="normal" in="SourceGraphic" in2="effect1_dropShadow_1156_790" result="shape"/>
</filter>
</defs>
</svg>
